<?xml version="1.0" encoding="utf-8"?>
<!-- Generator: Adobe Illustrator 16.0.3, SVG Export Plug-In . SVG Version: 6.00 Build 0)  -->
<!DOCTYPE svg PUBLIC "-//W3C//DTD SVG 1.1//EN" "http://www.w3.org/Graphics/SVG/1.1/DTD/svg11.dtd">
<svg version="1.1" id="Ebene_1" xmlns:sketch="http://www.bohemiancoding.com/sketch/ns"
	 xmlns="http://www.w3.org/2000/svg" xmlns:xlink="http://www.w3.org/1999/xlink" x="0px" y="0px" width="1440px" height="1024px"
	 viewBox="0 0 1440 1024" enable-background="new 0 0 1440 1024" xml:space="preserve">
<filter  width="200%" height="200%" id="filter-9" filterUnits="objectBoundingBox" y="-50%" x="-50%">
	<feOffset  result="shadowOffsetOuter1" in="SourceAlpha" dy="1" dx="1"></feOffset>
	<feGaussianBlur  stdDeviation="1" result="shadowBlurOuter1" in="shadowOffsetOuter1"></feGaussianBlur>
	
		<feColorMatrix  type="matrix" values="0 0 0 0 0   0 0 0 0 0   0 0 0 0 0  0 0 0 0.35 0" result="shadowMatrixOuter1" in="shadowBlurOuter1">
		</feColorMatrix>
	<feMerge>
		<feMergeNode  in="shadowMatrixOuter1"></feMergeNode>
		<feMergeNode  in="SourceGraphic"></feMergeNode>
	</feMerge>
</filter>
<filter  width="200%" height="200%" id="filter-8" filterUnits="objectBoundingBox" y="-50%" x="-50%">
	<feOffset  result="shadowOffsetOuter1" in="SourceAlpha" dy="2" dx="0"></feOffset>
	<feGaussianBlur  stdDeviation="2.5" result="shadowBlurOuter1" in="shadowOffsetOuter1"></feGaussianBlur>
	
		<feColorMatrix  type="matrix" values="0 0 0 0 0   0 0 0 0 0   0 0 0 0 0  0 0 0 0.35 0" result="shadowMatrixOuter1" in="shadowBlurOuter1">
		</feColorMatrix>
	<feMerge>
		<feMergeNode  in="shadowMatrixOuter1"></feMergeNode>
		<feMergeNode  in="SourceGraphic"></feMergeNode>
	</feMerge>
</filter>
<filter  width="200%" height="200%" id="filter-7" filterUnits="objectBoundingBox" y="-50%" x="-50%">
	<feOffset  result="shadowOffsetOuter1" in="SourceAlpha" dy="2" dx="0"></feOffset>
	<feGaussianBlur  stdDeviation="2.5" result="shadowBlurOuter1" in="shadowOffsetOuter1"></feGaussianBlur>
	
		<feColorMatrix  type="matrix" values="0 0 0 0 0   0 0 0 0 0   0 0 0 0 0  0 0 0 0.35 0" result="shadowMatrixOuter1" in="shadowBlurOuter1">
		</feColorMatrix>
	<feMerge>
		<feMergeNode  in="shadowMatrixOuter1"></feMergeNode>
		<feMergeNode  in="SourceGraphic"></feMergeNode>
	</feMerge>
</filter>
<filter  width="200%" height="200%" id="filter-6" filterUnits="objectBoundingBox" y="-50%" x="-50%">
	<feOffset  result="shadowOffsetOuter1" in="SourceAlpha" dy="0" dx="2"></feOffset>
	<feGaussianBlur  stdDeviation="3" result="shadowBlurOuter1" in="shadowOffsetOuter1"></feGaussianBlur>
	
		<feColorMatrix  type="matrix" values="0 0 0 0 0   0 0 0 0 0   0 0 0 0 0  0 0 0 0.35 0" result="shadowMatrixOuter1" in="shadowBlurOuter1">
		</feColorMatrix>
	<feMerge>
		<feMergeNode  in="shadowMatrixOuter1"></feMergeNode>
		<feMergeNode  in="SourceGraphic"></feMergeNode>
	</feMerge>
</filter>
<filter  width="200%" height="200%" id="filter-3" filterUnits="objectBoundingBox" y="-50%" x="-50%">
	<feOffset  result="shadowOffsetOuter1" in="SourceAlpha" dy="2" dx="0"></feOffset>
	<feGaussianBlur  stdDeviation="2.5" result="shadowBlurOuter1" in="shadowOffsetOuter1"></feGaussianBlur>
	
		<feColorMatrix  type="matrix" values="0 0 0 0 0   0 0 0 0 0   0 0 0 0 0  0 0 0 0.35 0" result="shadowMatrixOuter1" in="shadowBlurOuter1">
		</feColorMatrix>
	<feMerge>
		<feMergeNode  in="shadowMatrixOuter1"></feMergeNode>
		<feMergeNode  in="SourceGraphic"></feMergeNode>
	</feMerge>
</filter>
<filter  width="200%" height="200%" id="filter-2" filterUnits="objectBoundingBox" y="-50%" x="-50%">
	<feOffset  result="shadowOffsetOuter1" in="SourceAlpha" dy="2" dx="0"></feOffset>
	<feGaussianBlur  stdDeviation="2.5" result="shadowBlurOuter1" in="shadowOffsetOuter1"></feGaussianBlur>
	
		<feColorMatrix  type="matrix" values="0 0 0 0 0   0 0 0 0 0   0 0 0 0 0  0 0 0 0.35 0" result="shadowMatrixOuter1" in="shadowBlurOuter1">
		</feColorMatrix>
	<feMerge>
		<feMergeNode  in="shadowMatrixOuter1"></feMergeNode>
		<feMergeNode  in="SourceGraphic"></feMergeNode>
	</feMerge>
</filter>
<filter  width="200%" height="200%" id="filter-1" filterUnits="objectBoundingBox" y="-50%" x="-50%">
	<feOffset  result="shadowOffsetInner1" in="SourceAlpha" dy="1" dx="1"></feOffset>
	<feGaussianBlur  stdDeviation="5" result="shadowBlurInner1" in="shadowOffsetInner1"></feGaussianBlur>
	<feComposite  k3="1" k2="-1" operator="arithmetic" in2="SourceAlpha" result="shadowInnerInner1" in="shadowBlurInner1">
		</feComposite>
	
		<feColorMatrix  type="matrix" values="0 0 0 0 0   0 0 0 0 0   0 0 0 0 0  0 0 0 0.452301291 0" result="shadowMatrixInner1" in="shadowInnerInner1">
		</feColorMatrix>
	<feMerge>
		<feMergeNode  in="SourceGraphic"></feMergeNode>
		<feMergeNode  in="shadowMatrixInner1"></feMergeNode>
	</feMerge>
</filter>
<title>Desktop HD</title>
<desc>Created with Sketch.</desc>
<g id="Dashboard" sketch:type="MSPage">
	<g id="Desktop-HD" sketch:type="MSArtboardGroup">
		<g id="Head" sketch:type="MSShapeGroup" filter="url(#filter-1)">
			<rect fill="#34495E" width="1440" height="300"/>
		</g>
		<g id="Paper-lines" transform="translate(0.000000, 10.000000)" sketch:type="MSLayerGroup">
			<path id="Line" sketch:type="MSShapeGroup" fill="none" stroke="#FFFFFF" stroke-linecap="square" stroke-opacity="0.1563" d="
				M0,20h1440"/>
			<path id="Line-2" sketch:type="MSShapeGroup" fill="none" stroke="#FFFFFF" stroke-linecap="square" stroke-opacity="0.1563" d="
				M0,60h1440"/>
			
				<path id="Line-3" sketch:type="MSShapeGroup" fill="none" stroke="#FFFFFF" stroke-linecap="square" stroke-opacity="0.1563" stroke-dasharray="5" d="
				M0,40h1440"/>
			
				<path id="Line-10" sketch:type="MSShapeGroup" fill="none" stroke="#FFFFFF" stroke-linecap="square" stroke-opacity="0.1563" d="
				M0,100h1440"/>
			
				<path id="Line-9" sketch:type="MSShapeGroup" fill="none" stroke="#FFFFFF" stroke-linecap="square" stroke-opacity="0.1563" stroke-dasharray="5" d="
				M0,80h1440"/>
			
				<path id="Line-12" sketch:type="MSShapeGroup" fill="none" stroke="#FFFFFF" stroke-linecap="square" stroke-opacity="0.1563" d="
				M0,140h1440"/>
			
				<path id="Line-11" sketch:type="MSShapeGroup" fill="none" stroke="#FFFFFF" stroke-linecap="square" stroke-opacity="0.1563" stroke-dasharray="5" d="
				M0,120h1440"/>
			
				<path id="Line-14" sketch:type="MSShapeGroup" fill="none" stroke="#FFFFFF" stroke-linecap="square" stroke-opacity="0.1563" d="
				M0,180h1440"/>
			
				<path id="Line-13" sketch:type="MSShapeGroup" fill="none" stroke="#FFFFFF" stroke-linecap="square" stroke-opacity="0.1563" stroke-dasharray="5" d="
				M0,160h1440"/>
			
				<path id="Line-16" sketch:type="MSShapeGroup" fill="none" stroke="#FFFFFF" stroke-linecap="square" stroke-opacity="0.1563" d="
				M0,220h1440"/>
			
				<path id="Line-15" sketch:type="MSShapeGroup" fill="none" stroke="#FFFFFF" stroke-linecap="square" stroke-opacity="0.1563" stroke-dasharray="5" d="
				M0,200h1440"/>
			
				<path id="Line-18" sketch:type="MSShapeGroup" fill="none" stroke="#FFFFFF" stroke-linecap="square" stroke-opacity="0.1563" d="
				M0,260h1440"/>
			
				<path id="Line-17" sketch:type="MSShapeGroup" fill="none" stroke="#FFFFFF" stroke-linecap="square" stroke-opacity="0.1563" stroke-dasharray="5" d="
				M0,240h1440"/>
			
				<path id="Line-19" sketch:type="MSShapeGroup" fill="none" stroke="#FFFFFF" stroke-linecap="square" stroke-opacity="0.1563" stroke-dasharray="5" d="
				M0,280h1440"/>
			
				<path id="Line-21" sketch:type="MSShapeGroup" fill="none" stroke="#FFFFFF" stroke-linecap="square" stroke-opacity="0.1563" stroke-dasharray="5" d="
				M0,1h1440"/>
		</g>
		<text transform="matrix(1 0 0 1 136 62)" fill="#FFFFFF" font-family="'Roboto-Regular'" font-size="50">GRADES</text>
		<g id="Menu-Items" transform="translate(753.000000, 50.000000)" sketch:type="MSLayerGroup" sketch:alignment="right">
			<text transform="matrix(1 0 0 1 396.8506 14)" fill="#FFFFFF" font-family="'Roboto-Regular'" font-size="15">MARIE KOPPELFINGER</text>
			<text transform="matrix(1 0 0 1 136.4229 14)" fill="#FFFFFF" font-family="'Roboto-Regular'" font-size="15">MEINE NOTEN</text>
			<text transform="matrix(1 0 0 1 253.0781 14)" fill="#FFFFFF" font-family="'Roboto-Regular'" font-size="15">MEINE AUFGABEN</text>
			<text transform="matrix(1 0 0 1 0.666 14)" fill="#FFFFFF" font-family="'Roboto-Regular'" font-size="15">MEINE GRUPPEN</text>
		</g>
		<g id="Widget_Durchschnitt" transform="translate(1021.000000, 100.000000)" sketch:type="MSLayerGroup">
			<g id="Main-4" sketch:type="MSShapeGroup" filter="url(#filter-2)">
				<rect fill="#FFFFFF" width="281" height="281"/>
			</g>
			<text transform="matrix(1 0 0 1 11 38)" fill="#34495E" font-family="'Roboto-Regular'" font-size="30">NOTEN</text>
			<text transform="matrix(1 0 0 1 20 142)" fill="#34495E" font-family="'Roboto-Regular'" font-size="100">4.6</text>
			<polygon id="Triangle-1" sketch:type="MSShapeGroup" fill="#7ED321" points="172.5,81 180,96 165,96 			">
			</polygon>
			<text transform="matrix(1 0 0 1 20 194)" fill="#DF4A32" font-family="'Roboto-Regular'" font-size="20">3.5</text>
			<text transform="matrix(1 0 0 1 46.9434 194)" fill="#34495E" font-family="'Roboto-Regular'" font-size="20">FRA Vocabulaire 13-3...</text>
			<text transform="matrix(1 0 0 1 20 218)" fill="#34495E" font-family="'Roboto-Regular'" font-size="20">4.8</text>
			<text transform="matrix(1 0 0 1 46.9434 218)" fill="#34495E" font-family="'Roboto-Regular'" font-size="20">MAT Trigonometrie 1</text>
			<text transform="matrix(1 0 0 1 20 242)" fill="#34495E" font-family="'Roboto-Regular'" font-size="20">5.2</text>
			<text transform="matrix(1 0 0 1 46.9434 242)" fill="#34495E" font-family="'Roboto-Regular'" font-size="20">GSC Nordkorea</text>
			<text transform="matrix(1 0 0 1 165 152)" fill="#34495E" font-family="'Roboto-Regular'" font-size="20">+4.5</text>
		</g>
		<g id="Widget_Heute" transform="translate(136.000000, 100.000000)" sketch:type="MSLayerGroup">
			<g id="Main-2" sketch:type="MSShapeGroup" filter="url(#filter-3)">
				<rect fill="#FFFFFF" width="576" height="910"/>
			</g>
			<text transform="matrix(1 0 0 1 20 38)" fill="#34495E" font-family="'Roboto-Regular'" font-size="30">HEUTE FR, 23.1.2015</text>
			<g id="times" transform="translate(24.000000, 69.000000)" sketch:type="MSTextLayer">
				<text transform="matrix(1 0 0 1 0 64)" fill="#34495E" font-family="'Roboto-Regular'" font-size="15">07:00</text>
				<text transform="matrix(1 0 0 1 0 14)" fill="#34495E" font-family="'Roboto-Regular'" font-size="15">06:00</text>
				<text transform="matrix(1 0 0 1 0 119)" fill="#34495E" font-family="'Roboto-Regular'" font-size="15">08:00</text>
				<text transform="matrix(1 0 0 1 0 174)" fill="#34495E" font-family="'Roboto-Regular'" font-size="15">09:00</text>
				<text transform="matrix(1 0 0 1 0 229)" fill="#34495E" font-family="'Roboto-Regular'" font-size="15">10:00</text>
				<text transform="matrix(1 0 0 1 0 284)" fill="#34495E" font-family="'Roboto-Regular'" font-size="15">11:00</text>
				<text transform="matrix(1 0 0 1 0 339)" fill="#34495E" font-family="'Roboto-Regular'" font-size="15">12:00</text>
				<text transform="matrix(1 0 0 1 0 394)" fill="#34495E" font-family="'Roboto-Regular'" font-size="15">13:00</text>
				<text transform="matrix(1 0 0 1 0 449)" fill="#34495E" font-family="'Roboto-Regular'" font-size="15">14:00</text>
				<text transform="matrix(1 0 0 1 0 504)" fill="#34495E" font-family="'Roboto-Regular'" font-size="15">15:00</text>
				<text transform="matrix(1 0 0 1 0 559)" fill="#34495E" font-family="'Roboto-Regular'" font-size="15">16:00</text>
				<text transform="matrix(1 0 0 1 0 617)" fill="#34495E" font-family="'Roboto-Regular'" font-size="15">17:00</text>
				<text transform="matrix(1 0 0 1 0 675)" fill="#34495E" font-family="'Roboto-Regular'" font-size="15">18:00</text>
				<text transform="matrix(1 0 0 1 0 733)" fill="#34495E" font-family="'Roboto-Regular'" font-size="15">19:00</text>
			</g>
			<g id="lines" transform="translate(70.000000, 79.000000)">
				
					<path id="Line_1_" sketch:type="MSShapeGroup" fill="none" stroke="#34495E" stroke-linecap="square" stroke-opacity="0.1957" d="
					M1.129,0.5h484.696"/>
				
					<path id="Line-4" sketch:type="MSShapeGroup" fill="none" stroke="#34495E" stroke-linecap="square" stroke-opacity="0.1957" d="
					M1.129,50.5h484.696"/>
				
					<path id="Line-5" sketch:type="MSShapeGroup" fill="none" stroke="#34495E" stroke-linecap="square" stroke-opacity="0.1957" d="
					M1.129,105.5h484.696"/>
				
					<path id="Line-6" sketch:type="MSShapeGroup" fill="none" stroke="#34495E" stroke-linecap="square" stroke-opacity="0.1957" d="
					M1.129,160.5h484.696"/>
				
					<path id="Line-7" sketch:type="MSShapeGroup" fill="none" stroke="#34495E" stroke-linecap="square" stroke-opacity="0.1957" d="
					M1.129,215.5h484.696"/>
				
					<path id="Line-8" sketch:type="MSShapeGroup" fill="none" stroke="#34495E" stroke-linecap="square" stroke-opacity="0.1957" d="
					M1.129,270.5h484.696"/>
				
					<path id="Line-20" sketch:type="MSShapeGroup" fill="none" stroke="#34495E" stroke-linecap="square" stroke-opacity="0.1957" d="
					M1.129,325.5h484.696"/>
				
					<path id="Line-22" sketch:type="MSShapeGroup" fill="none" stroke="#34495E" stroke-linecap="square" stroke-opacity="0.1957" d="
					M1.129,380.5h484.696"/>
				
					<path id="Line-23" sketch:type="MSShapeGroup" fill="none" stroke="#34495E" stroke-linecap="square" stroke-opacity="0.1957" d="
					M1.129,435.5h484.696"/>
				
					<path id="Line-24" sketch:type="MSShapeGroup" fill="none" stroke="#34495E" stroke-linecap="square" stroke-opacity="0.1957" d="
					M1.129,489.5h484.696"/>
				
					<path id="Line-25" sketch:type="MSShapeGroup" fill="none" stroke="#34495E" stroke-linecap="square" stroke-opacity="0.1957" d="
					M1.129,545.5h484.696"/>
				
					<path id="Line-26" sketch:type="MSShapeGroup" fill="none" stroke="#34495E" stroke-linecap="square" stroke-opacity="0.1957" d="
					M1.129,603.5h484.696"/>
				
					<path id="Line-27" sketch:type="MSShapeGroup" fill="none" stroke="#34495E" stroke-linecap="square" stroke-opacity="0.1957" d="
					M1.129,662.5h484.696"/>
				
					<path id="Line-28" sketch:type="MSShapeGroup" fill="none" stroke="#34495E" stroke-linecap="square" stroke-opacity="0.1957" d="
					M1.129,719.5h484.696"/>
				<g id="Line-42">
					<g sketch:type="MSShapeGroup">
						<path id="path-5" fill="none" stroke="#34495E" stroke-linecap="square" stroke-opacity="0.1957" stroke-dasharray="5" d="
							M1.129,25.5h484.696"/>
					</g>
					<g>
						
							<linearGradient id="path-5_2_" gradientUnits="userSpaceOnUse" x1="14.1274" y1="925.0391" x2="14.1274" y2="925.0391" gradientTransform="matrix(484.6966 0 0 -1 -6604.1011 950.5391)">
							<stop  offset="0" style="stop-color:#FFFFFF;stop-opacity:0.5"/>
							<stop  offset="1" style="stop-color:#000000;stop-opacity:0.5"/>
						</linearGradient>
						<path id="path-5_1_" fill="url(#path-5_2_)" d="M1.129,25.5h484.696"/>
					</g>
				</g>
				
					<path id="Line-41" sketch:type="MSShapeGroup" fill="none" stroke="#34495E" stroke-linecap="square" stroke-opacity="0.1957" stroke-dasharray="5" d="
					M1.129,77.5h484.696"/>
				
					<path id="Line-40" sketch:type="MSShapeGroup" fill="none" stroke="#34495E" stroke-linecap="square" stroke-opacity="0.1957" stroke-dasharray="5" d="
					M1.129,133.5h484.696"/>
				
					<path id="Line-39" sketch:type="MSShapeGroup" fill="none" stroke="#34495E" stroke-linecap="square" stroke-opacity="0.1957" stroke-dasharray="5" d="
					M1.129,187.5h484.696"/>
				
					<path id="Line-38" sketch:type="MSShapeGroup" fill="none" stroke="#34495E" stroke-linecap="square" stroke-opacity="0.1957" stroke-dasharray="5" d="
					M1.129,242.5h484.696"/>
				
					<path id="Line-37" sketch:type="MSShapeGroup" fill="none" stroke="#34495E" stroke-linecap="square" stroke-opacity="0.1957" stroke-dasharray="5" d="
					M1.129,297.5h484.696"/>
				
					<path id="Line-36" sketch:type="MSShapeGroup" fill="none" stroke="#34495E" stroke-linecap="square" stroke-opacity="0.1957" stroke-dasharray="5" d="
					M1.129,352.5h484.696"/>
				
					<path id="Line-35" sketch:type="MSShapeGroup" fill="none" stroke="#34495E" stroke-linecap="square" stroke-opacity="0.1957" stroke-dasharray="5" d="
					M1.129,407.5h484.696"/>
				
					<path id="Line-34" sketch:type="MSShapeGroup" fill="none" stroke="#34495E" stroke-linecap="square" stroke-opacity="0.1957" stroke-dasharray="5" d="
					M1.129,462.5h484.696"/>
				
					<path id="Line-33" sketch:type="MSShapeGroup" fill="none" stroke="#34495E" stroke-linecap="square" stroke-opacity="0.1957" stroke-dasharray="5" d="
					M1.129,516.5h484.696"/>
				
					<path id="Line-32" sketch:type="MSShapeGroup" fill="none" stroke="#34495E" stroke-linecap="square" stroke-opacity="0.1957" stroke-dasharray="5" d="
					M1.129,572.5h484.696"/>
				
					<path id="Line-31" sketch:type="MSShapeGroup" fill="none" stroke="#34495E" stroke-linecap="square" stroke-opacity="0.1957" stroke-dasharray="5" d="
					M1.129,630.5h484.696"/>
				
					<path id="Line-30" sketch:type="MSShapeGroup" fill="none" stroke="#34495E" stroke-linecap="square" stroke-opacity="0.1957" stroke-dasharray="5" d="
					M1.129,691.5h484.696"/>
			</g>
			<g id="event" transform="translate(82.000000, 216.000000)">
				<rect id="Rectangle-6" sketch:type="MSShapeGroup" fill="#34495E" width="473" height="93">
				</rect>
				<text transform="matrix(1 0 0 1 10 25.8574)" fill="#FFFFFF" font-family="'Roboto-Regular'" font-size="14.3438">08:35-10:15</text>
				<text transform="matrix(1 0 0 1 99 25.8574)" fill="#FFFFFF" font-family="'Roboto-Regular'" font-size="14.3438">BIOLOGIE</text>
				<text transform="matrix(1 0 0 1 171 25.8574)" fill="#FFFFFF" font-family="'Roboto-Regular'" font-size="14.3438">108 B.Wullschleger</text>
			</g>
			<g id="event-2" transform="translate(82.000000, 321.000000)">
				<rect id="Rectangle-6_1_" sketch:type="MSShapeGroup" fill="#34495E" width="473" height="44">
				</rect>
				<text transform="matrix(1 0 0 1 10 25.8574)" fill="#FFFFFF" font-family="'Roboto-Regular'" font-size="14.3438">10:30-11:15</text>
				<text transform="matrix(1 0 0 1 99 25.8574)" fill="#FFFFFF" font-family="'Roboto-Regular'" font-size="14.3438">ENGLISCH</text>
				<text transform="matrix(1 0 0 1 176 25.8574)" fill="#FFFFFF" font-family="'Roboto-Regular'" font-size="14.3438">203 R.Hofmann</text>
			</g>
			<g id="event-3" transform="translate(82.000000, 369.000000)">
				<rect id="Rectangle-6_2_" sketch:type="MSShapeGroup" fill="#34495E" width="473" height="44">
				</rect>
				<text transform="matrix(1 0 0 1 10 25.8574)" fill="#FFFFFF" font-family="'Roboto-Regular'" font-size="14.3438">11:20-12:05</text>
				<text transform="matrix(1 0 0 1 99 25.8574)" fill="#FFFFFF" font-family="'Roboto-Regular'" font-size="14.3438">FRANZÖSISCH</text>
				<text transform="matrix(1 0 0 1 204 25.8574)" fill="#FFFFFF" font-family="'Roboto-Regular'" font-size="14.3438">104 J.Rouaze</text>
			</g>
			<g id="event-4" transform="translate(82.000000, 463.000000)">
				<rect id="Rectangle-6_3_" sketch:type="MSShapeGroup" fill="#34495E" width="236" height="93">
				</rect>
				<text transform="matrix(1 0 0 1 10 25.8574)" fill="#FFFFFF" font-family="'Roboto-Regular'" font-size="14.3438">13:05-14:45</text>
				<text transform="matrix(1 0 0 1 99 25.8574)" fill="#FFFFFF" font-family="'Roboto-Regular'" font-size="14.3438">CHEMIE</text>
				<g id="Rectangle-12" sketch:type="MSShapeGroup" filter="url(#filter-6)">
					<rect fill="#FF422E" width="3" height="93"/>
				</g>
			</g>
			<g id="event-5" transform="translate(82.000000, 561.000000)">
				<rect id="Rectangle-6_4_" sketch:type="MSShapeGroup" fill="#34495E" width="236" height="44">
				</rect>
				<text transform="matrix(1 0 0 1 10 25.8574)" fill="#FFFFFF" font-family="'Roboto-Regular'" font-size="14.3438">14:55-15:40</text>
				<text transform="matrix(1 0 0 1 99 25.8574)" fill="#FFFFFF" font-family="'Roboto-Regular'" font-size="14.3438">GESCHICHTE</text>
			</g>
			<g id="event-6" transform="translate(323.000000, 443.000000)">
				<rect id="Rectangle-11" sketch:type="MSShapeGroup" fill="#34495E" width="232" height="140">
				</rect>
				<text transform="matrix(1 0 0 1 12.4731 23)" fill="#FFFFFF" font-family="'Roboto-Regular'" font-size="14.3438">14:55-15:40</text>
				<text transform="matrix(1 0 0 1 12.4731 41)" fill="#FFFFFF" font-family="'Roboto-Regular'" font-size="14.3438">CHORPROBE</text>
				<text transform="matrix(1 0 0 1 12.4731 59)" fill="#FFFFFF" font-family="'Roboto-Regular'" font-size="14.3438">Jubiläumskonzert ‘Gurken-</text>
				<text transform="matrix(1 0 0 1 182.3779 59)" fill="#FFFFFF" font-family="'Roboto-Regular'" font-size="14.3438"> </text>
				<text transform="matrix(1 0 0 1 12.4731 76)" fill="#FFFFFF" font-family="'Roboto-Regular'" font-size="14.3438">Oratorium’</text>
			</g>
			<polygon id="Triangle-2" sketch:type="MSShapeGroup" fill="#34495E" points="313,36 317,28 309,28 			">
			</polygon>
			<path id="Triangle-2-Copy" sketch:type="MSShapeGroup" fill="#34495E" d="M549,28v8l8-4L549,28z"/>
			<path id="Triangle-2-Copy-2" sketch:type="MSShapeGroup" fill="#DF4A32" d="M71,333v8l8-4L71,333z"/>
			<text transform="matrix(1 0 0 1 491 35)" fill="#34495E" font-family="'Roboto-Regular'" font-size="15">WOCHE</text>
		</g>
		<g id="Widget_Aufgaben" transform="translate(727.000000, 100.000000)" sketch:type="MSLayerGroup">
			<g id="Main-3" sketch:type="MSShapeGroup" filter="url(#filter-7)">
				<rect x="-4" fill="#FFFFFF" width="281" height="281"/>
			</g>
			<text transform="matrix(1 0 0 1 10 38)" fill="#34495E" font-family="'Roboto-Regular'" font-size="30">AUFGABEN</text>
			<text transform="matrix(1 0 0 1 10 78)" fill="#34495E" font-family="'Roboto-Regular'" font-size="20">Mo </text>
			<text transform="matrix(1 0 0 1 66 78)" fill="#34495E" font-family="'Roboto-Regular'" font-size="20">MAT Dreicke </text>
			<text transform="matrix(1 0 0 1 10 102)" fill="#34495E" font-family="'Roboto-Regular'" font-size="20">berech…</text>
			<text transform="matrix(1 0 0 1 83.8574 102)" fill="#34495E" font-family="'Roboto-Regular'" font-size="20"> </text>
			<text transform="matrix(1 0 0 1 10 126)" fill="#34495E" font-family="'Roboto-Regular'" font-size="20">Di </text>
			<text transform="matrix(1 0 0 1 66 126)" fill="#34495E" font-family="'Roboto-Regular'" font-size="20">DEU Drehbuch fertig</text>
			<text transform="matrix(1 0 0 1 245.5605 126)" fill="#34495E" font-family="'Roboto-Regular'" font-size="20"> </text>
			<text transform="matrix(1 0 0 1 10 150)" fill="#34495E" font-family="'Roboto-Regular'" font-size="20">14.2 </text>
			<text transform="matrix(1 0 0 1 66 150)" fill="#34495E" font-family="'Roboto-Regular'" font-size="20">FRA AB Imparfait A…</text>
			<text transform="matrix(1 0 0 1 250.3848 150)" fill="#34495E" font-family="'Roboto-Regular'" font-size="20"> </text>
			<text transform="matrix(1 0 0 1 10 174)" fill="#34495E" font-family="'Roboto-Regular'" font-size="20">14.2 </text>
			<text transform="matrix(1 0 0 1 66 174)" fill="#34495E" font-family="'Roboto-Regular'" font-size="20">GSC DVD mitnehm...</text>
			<text transform="matrix(1 0 0 1 248.0313 174)" fill="#34495E" font-family="'Roboto-Regular'" font-size="20"> </text>
			<text transform="matrix(1 0 0 1 10 198)" fill="#34495E" font-family="'Roboto-Regular'" font-size="20">15.2 </text>
			<text transform="matrix(1 0 0 1 66 198)" fill="#34495E" font-family="'Roboto-Regular'" font-size="20">IUH Lorem Ipsum</text>
			<text transform="matrix(1 0 0 1 220.9707 198)" fill="#34495E" font-family="'Roboto-Regular'" font-size="20"> </text>
			<text transform="matrix(1 0 0 1 10 222)" fill="#34495E" font-family="'Roboto-Regular'" font-size="20">17.2 </text>
			<text transform="matrix(1 0 0 1 66 222)" fill="#34495E" font-family="'Roboto-Regular'" font-size="20">OIJ Dolor sit amet</text>
			<text transform="matrix(1 0 0 1 225.8633 222)" fill="#34495E" font-family="'Roboto-Regular'" font-size="20"> </text>
			<text transform="matrix(1 0 0 1 10 246)" fill="#34495E" font-family="'Roboto-Regular'" font-size="20">04.3 </text>
			<text transform="matrix(1 0 0 1 66 246)" fill="#34495E" font-family="'Roboto-Regular'" font-size="20">EOI Consectuir elit...</text>
			<text transform="matrix(1 0 0 1 245.1016 246)" fill="#34495E" font-family="'Roboto-Regular'" font-size="20"> </text>
			<text transform="matrix(1 0 0 1 10 270)" fill="#34495E" font-family="'Roboto-Regular'" font-size="20">16.3 </text>
			<text transform="matrix(1 0 0 1 66 270)" fill="#34495E" font-family="'Roboto-Regular'" font-size="20">IEU Nagirleons mat</text>
		</g>
		<g id="Widget_Tests" transform="translate(727.000000, 391.000000)" sketch:type="MSLayerGroup">
			<g id="Main-5" sketch:type="MSShapeGroup" filter="url(#filter-8)">
				<rect fill="#FFFFFF" width="576" height="619"/>
			</g>
			<text transform="matrix(1 0 0 1 10 38)" fill="#34495E" font-family="'Roboto-Regular'" font-size="30">TESTS</text>
			<text transform="matrix(1 0 0 1 15 73)" fill="#34495E" font-family="'Roboto-Regular'" font-size="20">Mo </text>
			<text transform="matrix(1 0 0 1 71 73)" fill="#34495E" font-family="'Roboto-Regular'" font-size="20">MAT Dreicke berechnen I: Der Gutachter der </text>
			<text transform="matrix(1 0 0 1 15 97)" fill="#34495E" font-family="'Roboto-Regular'" font-size="20">Elefanten-</text>
			<text transform="matrix(1 0 0 1 104.3555 97)" fill="#34495E" font-family="'Roboto-Regular'" font-size="20"> </text>
			<text transform="matrix(1 0 0 1 15 121)" fill="#34495E" font-family="'Roboto-Regular'" font-size="20">Sinüsse</text>
			<text transform="matrix(1 0 0 1 85 121)" fill="#34495E" font-family="'Roboto-Regular'" font-size="20"> </text>
			<text transform="matrix(1 0 0 1 15 169)" fill="#34495E" font-family="'Roboto-Regular'" font-size="20">Di </text>
			<text transform="matrix(1 0 0 1 71 169)" fill="#34495E" font-family="'Roboto-Regular'" font-size="20">DEU Aufsatz Bauchschweine</text>
			<text transform="matrix(1 0 0 1 326.6445 169)" fill="#34495E" font-family="'Roboto-Regular'" font-size="20"> </text>
			<text transform="matrix(1 0 0 1 15 217)" fill="#34495E" font-family="'Roboto-Regular'" font-size="20">14.2 </text>
			<text transform="matrix(1 0 0 1 71 217)" fill="#34495E" font-family="'Roboto-Regular'" font-size="20">FRA Achtung liebe Semestergaggi</text>
			<path id="Line_2_" sketch:type="MSShapeGroup" fill="none" stroke="#34495E" stroke-linecap="square" d="M15.5,116.5h532"/>
			<path id="Line-Copy" sketch:type="MSShapeGroup" fill="none" stroke="#34495E" stroke-linecap="square" d="M15.5,166.5h532"/>
			<path id="Triangle-2-Copy-3" sketch:type="MSShapeGroup" fill="#34495E" d="M547,101h-8l4,8L547,101z"/>
			<path id="Triangle-2-Copy-4" sketch:type="MSShapeGroup" fill="#34495E" d="M547,151h-8l4,8L547,151z"/>
			<path id="Line-Copy-2" sketch:type="MSShapeGroup" fill="none" stroke="#34495E" stroke-linecap="square" d="M15.5,219.5h532"/>
			<path id="Triangle-2-Copy-5" sketch:type="MSShapeGroup" fill="#34495E" d="M547,204h-8l4,8L547,204z"/>
		</g>
		<g id="_x2B_" transform="translate(1337.000000, 920.000000)" sketch:type="MSLayerGroup">
			<g id="Oval-1" filter="url(#filter-9)">
				<g sketch:type="MSShapeGroup">
					<circle id="path-10_2_" fill="#34495E" cx="35" cy="35" r="35"/>
				</g>
			</g>
			<text transform="matrix(1 0 0 1 21 45)" fill="#FFFFFF" font-family="'Roboto-Regular'" font-size="48.6957">+</text>
		</g>
	</g>
</g>
</svg>
